<?xml version="1.0" encoding="UTF-8" standalone="no"?>
<svg
   xmlns:dc="http://purl.org/dc/elements/1.1/"
   xmlns:cc="http://creativecommons.org/ns#"
   xmlns:rdf="http://www.w3.org/1999/02/22-rdf-syntax-ns#"
   xmlns:svg="http://www.w3.org/2000/svg"
   xmlns="http://www.w3.org/2000/svg"
   xmlns:sodipodi="http://sodipodi.sourceforge.net/DTD/sodipodi-0.dtd"
   xmlns:inkscape="http://www.inkscape.org/namespaces/inkscape"
   width="100%"
   height="100%"
   viewBox="0 0 100 20"
   version="1.1"
   id="svg27"
   sodipodi:docname="Magnit Horizontal 2019.svg"
   fill="#FFFF"
   inkscape:version="0.92.3 (2405546, 2018-03-11)">
  <metadata
     id="metadata31">
    <rdf:RDF>
      <cc:Work
         rdf:about="">
        <dc:format>image/svg+xml</dc:format>
        <dc:type
           rdf:resource="http://purl.org/dc/dcmitype/StillImage" />
        <dc:title></dc:title>
      </cc:Work>
    </rdf:RDF>
  </metadata>
  <sodipodi:namedview
     pagecolor="#ffffff"
     bordercolor="#666666"
     borderopacity="1"
     objecttolerance="10"
     gridtolerance="10"
     guidetolerance="10"
     inkscape:pageopacity="0"
     inkscape:pageshadow="2"
     inkscape:window-width="1920"
     inkscape:window-height="1017"
     id="namedview29"
     showgrid="false"
     fit-margin-top="0"
     fit-margin-left="0"
     fit-margin-right="0"
     fit-margin-bottom="0"
     inkscape:zoom="0.54629704"
     inkscape:cx="1328.9473"
     inkscape:cy="250"
     inkscape:window-x="-8"
     inkscape:window-y="-8"
     inkscape:window-maximized="1"
     inkscape:current-layer="svg27" />
  <g
     clip-path="url(#clip0)"
     id="g20"
     style="stroke-width:0.038">
    <path
       d="M 53.9222,15.8134 V 3.18677 h 7.8443 v 2.93271 h -4.5734 v 9.69392 z"
       id="path2"
       inkscape:connector-curvature="0"
       style="fill:#FFFF;stroke-width:0.001444" />
    <path
       d="m 71.6356,15.8134 v -4.9452 h -4.8592 v 4.9452 H 63.5055 V 3.18677 h 3.2709 v 4.71217 h 4.8592 V 3.18677 h 3.2709 V 15.8134 Z"
       id="path4"
       inkscape:connector-curvature="0"
       style="fill:#FFFF;stroke-width:0.001444" />
    <path
       d="M 93.8883,15.8134 V 6.11948 H 90.068 V 3.18677 H 101 v 2.93271 h -3.8391 v 9.69392 z"
       id="path6"
       inkscape:connector-curvature="0"
       style="fill:#FFFF;stroke-width:0.001444" />
    <path
       d="M 85.2549,15.8117 V 8.6173 l -5.2067,7.1944 H 77.3131 V 3.18848 H 80.584 V 10.308 l 5.1194,-7.11952 h 2.8241 V 15.8117 Z"
       id="path8"
       inkscape:connector-curvature="0"
       style="fill:#FFFF;stroke-width:0.001444" />
    <path
       d="M 35.1255,15.8134 V 8.30945 L 31.8597,12.2737 28.594,8.30945 V 15.8134 H 25.3231 V 3.18677 h 3.2281 l 3.3085,4.34166 3.3086,-4.34166 h 3.228 V 15.8134 Z"
       id="path10"
       inkscape:connector-curvature="0"
       style="fill:#FFFF;stroke-width:0.001444" />
    <path
       d="m 44.606,11.3725 h 3.0398 l -1.5199,-3.959 z m 4.7446,4.4391 -0.6846,-1.7691 h -5.0852 l -0.6847,1.7691 H 39.6082 L 44.6386,3.18665 h 3.0244 l 5.0321,12.62495 z"
       id="path12"
       inkscape:connector-curvature="0"
       style="fill:#FFFF;stroke-width:0.001444" />
    <path
       d="M -0.00354004,5.75236 C -3.73009e-4,4.22743 0.597229,2.7659 1.65842,1.68777 2.71961,0.609637 4.15792,0.0027575 5.65844,0 H 18.73 V 2.92401 H 5.66187 C 4.92456,2.92721 4.21833,3.22617 3.69681,3.75585 3.1753,4.28552 2.88069,5.00306 2.87709,5.75236 L 2.85997,10.6611 c -0.05966,0.6289 -0.3226,1.22 -0.74776,1.6811 -0.42515,0.461 -0.98857,0.7659 -1.602269,0.8672 l -0.51348104,0.08 z"
       id="path14"
       inkscape:connector-curvature="0"
       style="fill:#FFFF;stroke-width:0.001444" />
    <path
       d="M -0.00280762,19 V 16.0759 H 13.0687 c 0.7375,-0.0036 1.4437,-0.303 1.9652,-0.8329 0.5214,-0.53 0.816,-1.2477 0.8196,-1.9971 V 8.58762 C 15.8571,7.9118 16.097,7.25928 16.5303,6.7466 16.9636,6.23392 17.5621,5.89446 18.2189,5.78885 l 0.5135,-0.07828 v 7.53533 c -0.0032,1.5251 -0.6007,2.9868 -1.6619,4.0652 -1.0611,1.0784 -2.4994,1.6856 -4.0001,1.6889 z"
       id="path16"
       inkscape:connector-curvature="0"
       style="fill:#FFFF;stroke-width:0.001444" />
    <path
       d="M 11.0707,13.2998 V 9.52 L 9.36592,11.5882 7.66288,9.52 v 3.7798 H 5.40527 V 5.86194 h 2.1378 L 9.36592,8.25368 11.1888,5.86194 h 2.1378 v 7.43786 z"
       id="path18"
       inkscape:connector-curvature="0"
       style="fill:#FFFF;stroke-width:0.001444" />
  </g>
  <defs
     id="defs25">
    <clipPath
       id="clip0">
      <rect
         width="101"
         height="19"
         id="rect22"
         x="0"
         y="0"
         style="fill:#ffffff" />
    </clipPath>
  </defs>
</svg>
